<?xml version="1.0" ?><!DOCTYPE svg  PUBLIC '-//W3C//DTD SVG 1.1//EN'  'http://www.w3.org/Graphics/SVG/1.1/DTD/svg11.dtd'><svg height="512px" style="enable-background:new 0 0 512 512;" version="1.1" viewBox="0 0 512 512" width="512px" xml:space="preserve" xmlns="http://www.w3.org/2000/svg" xmlns:xlink="http://www.w3.org/1999/xlink"><g id="_x35_7_x2C__visualize_x2C__conception_x2C__monitoring_x2C__monitoring_x2C__vision"><g><path d="M68.759,226.537h-7.907h-0.105h-8.416v16.445h16.428V226.537z     M459.669,226.537h-16.432v16.445h7.787h0.105h8.539V226.537z M439.538,219.141h7.683c-2.299-30.877-11.922-59.74-27.132-84.814    c-16.161-26.607-38.65-49.006-65.364-65.09H157.287c-26.711,16.084-49.2,38.482-65.361,65.09    c-15.214,25.074-24.833,53.938-27.15,84.814h7.683c2.046,0,3.699,1.654,3.699,3.698v23.812c0,2.045-1.653,3.697-3.699,3.697h-7.5    c2.688,31.178,12.838,60.252,28.652,85.355c16.807,26.668,39.97,48.916,67.375,64.58h190.043    c7.683-4.42,15.046-9.32,22.022-14.702H235.906c-2.028,0-3.695-1.653-3.695-3.698c0-2.044,1.667-3.697,3.695-3.697h146.15    c14.068-12.297,26.335-26.607,36.333-42.482c15.814-25.104,25.974-54.178,28.666-85.355h-7.518c-2.028,0-3.682-1.652-3.682-3.697    v-23.812C435.856,220.795,437.51,219.141,439.538,219.141z M219.836,194.277c-0.779,0-1.548,0.27-2.148,0.811l-0.137,0.121    c-0.614,0.631-0.93,1.443-0.93,2.284c0,0.813,0.316,1.624,0.93,2.256c0.632,0.631,1.46,0.962,2.285,0.962    c0.814,0,1.639-0.331,2.256-0.962c0.632-0.603,0.934-1.443,0.934-2.256c0-0.812-0.316-1.653-0.934-2.284    C221.475,194.607,220.65,194.277,219.836,194.277z M212.621,189.737c2.032-1.895,4.633-2.856,7.216-2.856    c2.692,0,5.397,1.053,7.472,3.097c2.092,2.074,3.113,4.81,3.113,7.516s-1.039,5.413-3.113,7.486    c-2.042,2.074-4.766,3.097-7.472,3.097c-2.72,0-5.44-1.022-7.5-3.097c-2.06-2.073-3.113-4.78-3.113-7.486s1.053-5.411,3.113-7.485    L212.621,189.737z M202.58,231.407c-0.572,0.571-0.947,1.383-0.947,2.255c0,0.812,0.315,1.563,0.814,2.135l0.133,0.12    c0.572,0.601,1.383,0.962,2.257,0.962c0.884,0,1.698-0.361,2.267-0.962c0.586-0.571,0.947-1.383,0.947-2.255    s-0.361-1.684-0.947-2.255c-0.569-0.601-1.365-0.962-2.267-0.962C203.963,230.445,203.152,230.807,202.58,231.407z     M194.252,233.662c0-2.916,1.19-5.563,3.099-7.486c1.923-1.924,4.569-3.097,7.486-3.097c2.916,0,5.563,1.173,7.486,3.097    c1.937,1.924,3.127,4.57,3.127,7.486s-1.19,5.592-3.113,7.486c-1.909,1.924-4.569,3.127-7.5,3.127    c-2.917,0-5.563-1.203-7.486-3.127l-0.242-0.271C195.336,238.983,194.252,236.458,194.252,233.662z M217.552,272.085    c0.632,0.632,1.46,0.962,2.285,0.962c0.814,0,1.639-0.33,2.256-0.932c0.632-0.631,0.934-1.443,0.934-2.285    c0-0.812-0.316-1.623-0.934-2.255c-0.618-0.631-1.442-0.932-2.256-0.932c-0.825,0-1.653,0.301-2.285,0.932    c-0.614,0.632-0.93,1.443-0.93,2.255C216.622,270.643,216.938,271.484,217.552,272.085z M212.336,277.316    c-2.074-2.044-3.113-4.78-3.113-7.486s1.039-5.412,3.099-7.486c2.074-2.074,4.794-3.097,7.514-3.097    c2.706,0,5.415,1.022,7.489,3.097s3.095,4.78,3.095,7.486s-1.039,5.412-3.113,7.486c-2.042,2.074-4.766,3.127-7.472,3.127    C217.117,280.443,214.396,279.391,212.336,277.316z M253.738,287.088c0.568,0.602,1.383,0.932,2.267,0.932    c0.888,0,1.699-0.33,2.256-0.902c0.6-0.601,0.947-1.412,0.947-2.284c0-0.901-0.348-1.714-0.919-2.285    c-0.586-0.571-1.397-0.933-2.285-0.933c-0.884,0-1.699,0.361-2.267,0.933c-0.59,0.571-0.948,1.384-0.948,2.285    C252.791,285.705,253.148,286.517,253.738,287.088z M256.005,295.416c-2.899,0-5.545-1.173-7.472-3.098    c-1.938-1.953-3.124-4.568-3.124-7.485c0-2.916,1.186-5.563,3.109-7.486c1.941-1.925,4.587-3.127,7.486-3.127    c2.902,0,5.548,1.202,7.471,3.097c1.941,1.954,3.127,4.601,3.127,7.517c0,2.917-1.186,5.532-3.112,7.456    C261.554,294.243,258.907,295.416,256.005,295.416z M292.174,273.047c0.828,0,1.653-0.33,2.271-0.932    c0.632-0.631,0.948-1.473,0.948-2.285c0-0.812-0.316-1.623-0.934-2.255c-0.632-0.631-1.457-0.932-2.285-0.932    c-0.811,0-1.639,0.301-2.253,0.932c-0.632,0.603-0.947,1.443-0.947,2.255c0,0.813,0.315,1.654,0.947,2.285    C290.535,272.717,291.363,273.047,292.174,273.047z M299.678,277.316c-2.061,2.074-4.798,3.127-7.504,3.127    s-5.426-1.053-7.485-3.127c-2.061-2.044-3.113-4.75-3.113-7.486c0-2.706,1.053-5.412,3.113-7.456    c2.06-2.104,4.779-3.127,7.485-3.127s5.43,1.022,7.504,3.097c2.073,2.074,3.095,4.78,3.095,7.486S301.751,275.272,299.678,277.316    z M309.434,235.947c0.568-0.602,0.93-1.383,0.93-2.285c0-0.872-0.361-1.684-0.93-2.255c-0.572-0.601-1.386-0.962-2.271-0.962    c-0.828,0-1.579,0.33-2.134,0.813l-0.137,0.149c-0.572,0.571-0.934,1.383-0.934,2.255s0.361,1.684,0.934,2.255    c0.572,0.601,1.383,0.962,2.271,0.962C308.048,236.879,308.861,236.518,309.434,235.947z M317.762,233.662    c0,2.916-1.189,5.562-3.099,7.486c-1.923,1.924-4.569,3.127-7.5,3.127c-2.902,0-5.549-1.203-7.472-3.127    c-1.94-1.895-3.127-4.57-3.127-7.486s1.187-5.563,3.096-7.486l0.27-0.24c1.909-1.774,4.45-2.856,7.233-2.856    c2.931,0,5.577,1.173,7.5,3.097C316.572,228.1,317.762,230.746,317.762,233.662z M294.444,195.209    c-0.617-0.602-1.442-0.932-2.271-0.932c-0.811,0-1.639,0.33-2.253,0.932c-0.632,0.631-0.947,1.443-0.947,2.284    c0,0.813,0.315,1.653,0.947,2.256c0.614,0.631,1.442,0.962,2.253,0.962c0.828,0,1.653-0.331,2.271-0.962    c0.632-0.603,0.948-1.443,0.948-2.256c0-0.78-0.271-1.532-0.797-2.134L294.444,195.209z M299.66,189.978l0.27,0.3    c1.896,2.045,2.857,4.631,2.857,7.216c0,2.706-1.054,5.413-3.109,7.456c-2.061,2.104-4.798,3.127-7.504,3.127    s-5.426-1.022-7.485-3.097c-2.061-2.044-3.113-4.78-3.113-7.486s1.053-5.411,3.113-7.485c2.074-2.074,4.794-3.127,7.485-3.127    C294.88,186.881,297.586,187.934,299.66,189.978z M258.29,180.236c-0.601-0.602-1.397-0.932-2.285-0.932    c-0.884,0-1.699,0.36-2.267,0.901c-0.59,0.601-0.948,1.413-0.948,2.284c0,0.902,0.358,1.715,0.948,2.285    c0.568,0.572,1.365,0.933,2.267,0.933c0.828,0,1.579-0.301,2.137-0.812l0.133-0.121c0.572-0.57,0.934-1.383,0.934-2.285    C259.209,181.619,258.848,180.807,258.29,180.236z M256.005,171.908c2.917,0,5.562,1.173,7.471,3.097l0.105,0.12    c1.881,1.924,3.021,4.51,3.021,7.365c0,2.947-1.186,5.593-3.112,7.518l-0.271,0.24c-1.892,1.773-4.433,2.855-7.215,2.855    c-2.917,0-5.563-1.202-7.486-3.096c-1.923-1.925-3.109-4.57-3.109-7.518c0-2.885,1.186-5.531,3.095-7.455l0.105-0.121    C250.548,173.051,253.148,171.908,256.005,171.908z M276.017,213.668c-5.113-5.11-12.192-8.298-20.011-8.298    c-7.816,0-14.88,3.188-19.994,8.298c-5.124,5.081-8.296,12.177-8.296,19.994c0,7.816,3.172,14.882,8.296,19.994    c5.113,5.11,12.178,8.297,19.994,8.297c7.819,0,14.898-3.156,19.994-8.268c5.127-5.142,8.282-12.207,8.282-20.023    C284.281,225.845,281.126,218.779,276.017,213.668z M256.005,197.975c9.833,0,18.748,3.998,25.212,10.463    c6.479,6.494,10.461,15.394,10.461,25.225s-3.982,18.73-10.447,25.195c-6.496,6.494-15.393,10.492-25.226,10.492    c-9.862,0-18.776-3.998-25.223-10.463c-6.465-6.464-10.448-15.363-10.448-25.225c0-9.831,3.983-18.762,10.448-25.225    C237.229,201.973,246.144,197.975,256.005,197.975z M304.38,185.287c-10.869-10.884-25.388-18.1-41.563-19.693    c-2.271-0.09-4.542-0.119-6.812-0.119c-2.285,0-4.538,0.029-6.809,0.119c-16.175,1.594-30.698,8.81-41.566,19.693    c-12.385,12.357-20.053,29.464-20.053,48.375c0,18.881,7.668,35.988,20.053,48.375c10.869,10.884,25.391,18.1,41.566,19.723    c2.271,0.061,4.524,0.09,6.809,0.09c2.27,0,4.541-0.029,6.812-0.09c16.098-1.594,30.546-8.75,41.384-19.543l0.179-0.18    c12.375-12.387,20.04-29.494,20.04-48.375C324.42,214.751,316.769,197.645,304.38,185.287z M215.463,297.73    c-4.734-3.006-9.125-6.523-13.062-10.463c-13.712-13.709-22.205-32.68-22.205-53.605s8.493-39.866,22.205-53.605    c3.952-3.939,8.328-7.457,13.062-10.463c-15.063,3.126-29.508,7.967-43.114,14.279c-25.433,11.816-47.982,28.894-66.231,49.789    c18.249,20.896,40.798,37.972,66.231,49.787C185.956,289.764,200.401,294.604,215.463,297.73z M296.533,169.594    c4.72,3.006,9.11,6.523,13.048,10.463c13.739,13.739,22.236,32.71,22.236,53.605c0,20.926-8.497,39.896-22.219,53.605l-0.21,0.211    c-3.896,3.848-8.224,7.306-12.87,10.252c15.077-3.126,29.526-7.937,43.129-14.281c25.45-11.815,47.985-28.892,66.234-49.787    c-18.235-20.896-40.784-37.973-66.234-49.789C326.045,177.561,311.596,172.72,296.533,169.594z M122.623,146.533    c-0.709,1.924-2.829,2.886-4.738,2.164c-1.892-0.691-2.853-2.825-2.162-4.72c0.06-0.149,19.825-54.778,50.793-56.222    c28.564-1.383,97.321,0,97.519,0c2.028,0.03,3.653,1.713,3.607,3.728c-0.046,2.045-1.73,3.669-3.759,3.608    c-0.183,0-68.593-1.354-97.02,0C140.827,96.324,122.683,146.413,122.623,146.533z M103.532,42.297    c-2.015,0-3.654-1.594-3.699-3.607v6.854H85.959v-13.89h13.873v6.855c0.045-1.985,1.685-3.608,3.699-3.608H243.41v-8.899h25.18    v8.899h139.893c2.001,0,3.636,1.623,3.682,3.608v-6.855h13.877v13.89h-13.877v-6.854c-0.046,2.014-1.681,3.607-3.682,3.607H268.59    v8.869h-25.18v-8.869H103.532z M181.386,485.999c-2.046,0-3.699-1.685-3.699-3.697c0-2.046,1.653-3.698,3.699-3.698h23.616    c2.042,0,3.695,1.652,3.695,3.698c0,2.013-1.653,3.697-3.695,3.697H181.386z M83.882,485.999c-2.042,0-3.695-1.685-3.695-3.697    c0-2.046,1.653-3.698,3.695-3.698h51.804c2.046,0,3.699,1.652,3.699,3.698c0,2.013-1.653,3.697-3.699,3.697H83.882z     M349.733,478.604c2.032,0,3.699,1.652,3.699,3.698c0,2.013-1.667,3.697-3.699,3.697H232.33c-2.028,0-3.699-1.685-3.699-3.697    c0-2.046,1.67-3.698,3.699-3.698H349.733z M414.06,463.21c2.046,0,3.698,1.653,3.698,3.698c0,2.044-1.652,3.697-3.698,3.697    h-51.804c-2.043,0-3.695-1.653-3.695-3.697c0-2.045,1.652-3.698,3.695-3.698H414.06z M148.208,470.605    c-2.028,0-3.699-1.653-3.699-3.697c0-2.045,1.671-3.698,3.699-3.698h182.164c2.047,0,3.699,1.653,3.699,3.698    c0,2.044-1.652,3.697-3.699,3.697H148.208z M99.833,428.425H243.41v-8.87h25.18v8.87h143.574v-3.218h13.877v13.86h-13.877v-3.248    H268.59v8.9h-25.18v-8.9H99.833v3.248H85.959v-13.86h13.873V428.425z M256.005,157.867c2.435,0,4.857,0.09,7.247,0.331    c28.308,0.992,55.184,7.697,79.494,18.972c27.402,12.717,51.544,31.297,70.818,54.117c1.2,1.412,1.141,3.487-0.077,4.84    c-19.257,22.76-43.385,41.311-70.741,54.027c-24.311,11.274-51.172,17.979-79.479,18.972c-2.391,0.24-4.809,0.36-7.261,0.36    c-2.45,0-4.868-0.12-7.261-0.36c-28.304-0.992-55.184-7.697-79.476-18.972c-27.406-12.717-51.548-31.297-70.818-54.117    c-1.204-1.414-1.141-3.488,0.06-4.84c19.257-22.76,43.385-41.311,70.759-54.027c24.307-11.274,51.172-17.979,79.476-18.972    C251.138,157.957,253.556,157.867,256.005,157.867z" style="fill-rule:evenodd;clip-rule:evenodd;"/></g></g><g id="Layer_1"/></svg>